<?xml version="1.0"?>
<svg xmlns="http://www.w3.org/2000/svg" id="Icons" viewBox="0 0 74 74" width="512" height="512"><path d="M37,72a1,1,0,0,1-.324-.054,31.343,31.343,0,0,1-6.481-3.22A43.356,43.356,0,0,1,10.188,31.771V14.46a1,1,0,0,1,.965-1c10.134-.354,18.584-4.1,25.113-11.141a1,1,0,0,1,.72-.32,1.1,1.1,0,0,1,.728.3A36.689,36.689,0,0,0,62.86,13.461a1,1,0,0,1,.951,1V31.771A43.356,43.356,0,0,1,43.806,68.726a31.343,31.343,0,0,1-6.481,3.22A1,1,0,0,1,37,72ZM12.188,15.416V31.771A41.367,41.367,0,0,0,31.265,67.036,30.045,30.045,0,0,0,37,69.94a30.045,30.045,0,0,0,5.735-2.9A41.367,41.367,0,0,0,61.812,31.771V15.4A38.484,38.484,0,0,1,37.02,4.43,36.43,36.43,0,0,1,12.188,15.416Z"/><path d="M34.471,52.343a1.011,1.011,0,0,1-.364-.068,1,1,0,0,1-.635-.982l.568-11.331-7.138-.7a1,1,0,0,1-.65-1.659L40.987,20.994a1,1,0,0,1,1.743.764L41.582,33.169l5.774,2.2a1,1,0,0,1,.412,1.575L35.239,51.983A1,1,0,0,1,34.471,52.343ZM29.05,37.46l6.135.6a1,1,0,0,1,.9,1.045L35.619,48.4l9.717-11.661-5.182-1.976a1,1,0,0,1-.639-1.035l.915-9.1Z"/></svg>
